<?xml version="1.0" encoding="UTF-8"?>
<svg id="_图层_1" data-name="图层 1" xmlns="http://www.w3.org/2000/svg" viewBox="0 0 743.66 254.08">
  <defs>
    <style>
      .cls-1 {
        fill: #817e00;
      }

      .cls-1, .cls-2, .cls-3 {
        fill-rule: evenodd;
      }

      .cls-2 {
        fill: #545251;
      }

      .cls-3 {
        fill: #c40317;
      }
    </style>
  </defs>
  <polygon class="cls-3" points="187.78 186.28 205.81 186.28 205.81 209.24 164.65 209.24 187.78 186.28"/>
  <path class="cls-1" d="m374.3,0l369.36,97.34-73.72,56.17-48.98,100.56-52.87-54.05-89.61,43.76-8.99-21.03,5.49-12.28,12.25-27.57,12.29,26.92,94.82-50.1L374.3,0h0Zm38.84,64.6L375.42,2.14l26.63,62.46h11.09Zm205.45,111.93l-40.95,20.04,36.38,27.29,4.57-47.33h0Zm35.12-22.24L429.77,31.69l205.32,133.42-3.33,38.45,21.94-49.26h0Zm43.22-54.25L446.38,29.12l208.53,100.04,42-29.12Z"/>
  <path class="cls-2" d="m81.88,141.19c30.51-22.27,18.11-68.03-28.92-68.06l-23.27,22.97h17.53c37.01,0,36.71,36.86-.87,36.23H0v76.9h52.64c47.29.18,59.81-45.74,29.24-68.04h0Zm382.45,68.04l-58.21-136.41h29.76l28.22,70.64,20.36-51.6,22.57,16.41-42.7,100.96h0Zm-93.17-136.41l55.82,136.41h29.73l-57.72-136.41h-27.84Zm14.33,50.16l-14.02-34.29-51,120.54h29.73l9.87-24.11h50.85l-10.09-24.61h-30.69l15.35-37.53h0Zm-154.52-50.06h28.48v86.07c0,30.99,43.96,31.41,43.96,0v-86.07h28.49v83.93c0,70.98-100.92,69.4-100.92,0v-83.93h0Zm-57.01,23.18h-67.61v-22.97h99.47v27.45l-63.52,85.7h27.35l-23.08,22.96h-40.22v-22.96l67.61-90.17h0ZM21.94,150.06h24.42c37.58-.63,37.87,36.22.87,36.22h-25.28v-36.22Z"/>
  <polygon class="cls-3" points="0 73.13 35.1 73.13 0 107.8 0 73.13"/>
</svg>